<!-- save as src/assets/animals/dolphin.svg -->
<svg xmlns="http://www.w3.org/2000/svg" viewBox="0 0 64 64" width="256" height="256" aria-labelledby="dolphinTitle" role="img">
  <title id="dolphinTitle">Dolphin mascot - intelligence</title>
  <g fill="none" fill-rule="evenodd">
    <rect width="64" height="64" rx="8" fill="#E8F6FF"/>
    <path d="M8 36c6-12 22-18 36-14 8 2 12 8 12 8s-6 2-10 6c-6 6-18 8-28 8-8 0-10-4-10-8z" fill="#60A5FA"/>
    <path d="M40 30c2 0 4 1 4 3s-2 3-4 3-4-1-4-3 2-3 4-3z" fill="#FFF"/>
    <path d="M30 38c6 4 12 4 18 0" stroke="#2B6CB0" stroke-width="1.5" stroke-linecap="round"/>
  </g>
</svg>
