<!-- save as src/assets/animals/lion.svg -->
<svg xmlns="http://www.w3.org/2000/svg" viewBox="0 0 64 64" width="256" height="256" aria-labelledby="lionTitle" role="img">
  <title id="lionTitle">Lion mascot - courage</title>
  <g fill="none" fill-rule="evenodd">
    <circle cx="32" cy="32" r="30" fill="#FFF7ED"/>
    <g transform="translate(10 10)">
      <circle cx="22" cy="18" r="10" fill="#FBBF24"/>
      <path d="M22 30c-8 0-14 2-14 6 0 1.7 1.7 3.6 5 4 5 0 9 0 9 0s4 0 9 0c3.3-.4 5-2.3 5-4 0-4-6-6-14-6z" fill="#F59E0B"/>
      <circle cx="18" cy="16" r="2" fill="#111827"/>
      <circle cx="26" cy="16" r="2" fill="#111827"/>
      <path d="M18 22c3 2 6 2 9 0" stroke="#111827" stroke-width="1.5" stroke-linecap="round"/>
      <path d="M0 14c6 6 14 10 22 10s16-4 22-10" stroke="#F59E0B" stroke-width="3" stroke-linecap="round"/>
    </g>
  </g>
</svg>
